<svg height="124.056133" viewBox="0 0 724.50003 111.594" width="806.08671" xmlns="http://www.w3.org/2000/svg"><g fill-rule="evenodd"><path d="m3475.45-29.985 140.55 15.985-22 107-98.09 18.6z" fill="#006c66" transform="translate(-3475.44)"/><g fill="#fff" transform="matrix(.38247619 0 0 .38247619 27 8.03)"><path d="m105 0a105 105 0 1 0 105 105 105.1 105.1 0 0 0 -105-105zm0 207.1a102.1 102.1 0 1 1 102.1-102.1 102.2 102.2 0 0 1 -102.1 102.1z"/><path d="m166.6 97c-1.4-3.1-.5-5.1-.9-7.3s-2.7-7-4.3-10.8c-.7-1.7 3.8-1.3.4-7.6 0-.2 4.7-2 0-5.5a26.4 26.4 0 0 1 -6-6.7 1 1 0 0 1 0-1.3c2.7-2.4 2.8-5.8-.1-7.5s-4.5 0-6.7 1.4c-.7.5-1.1.8-1.9.5l-1.8-1.2c2.7-2.6 3.3-5.2 3.1-5.6s-4.6-1.3-10.2 1l-.4-.3c2.3-3.9 1-6.7.9-6.9h-.1a81 81 0 0 1 12.4-13.3h.1c.2-.3.3-.6-.2-.9l-1-.6a92.4 92.4 0 0 0 -137.2 80.6c0 29.5 15 57.9 39.4 75.6a13.5 13.5 0 0 0 2.8 1.6 1.1 1.1 0 0 0 1.1-.2l.3-.5a1 1 0 0 0 .3-.8c0-.7-.9-1.3-2.1-3a27.7 27.7 0 0 1 -4.7-15.1 22.1 22.1 0 0 1 4.5-13.7c3.7 3.9 11.7 10.9 11.5 17.4s-6.9 6.8-5.4 12.2c.9 3.4 3.4 2 3.9 4.6.7 4.4 6.7 7.3 9.3 6.9.7-.1 1.2.4 2.4 1.7s6.2 1.6 8.2 1.2 4.1 1.4 8 .9 6.1-.9 8.2-.9 22.5-.3 36 1.8c2.4.4 3.1-.7 2.1-2.5-4.9-8.6-5.6-15.8-2.8-25 5 .4 12.2 1.7 21.6-4a11 11 0 0 0 5.1-9.5c-.1-2.1-1-4.7-.5-6.7s1.3-2.7 2.1-3.2c3.6-2.6 1-4.6.4-4.8a3.4 3.4 0 0 0 1.1-4.6c-.7-.7-2.7-6.2-.4-7.3s5.3-1.8 8.1-3.1a4.5 4.5 0 0 0 2.4-6c-1.4-3.6-8.8-20.6-9-21zm-101.9 82.1c-.7.2-2.9.3-2.4-2.7s2.3-2.6 3.3-1.6-.7 2.8-.9 4.3zm87-125.9c1.2-.8 2.5-1.1 3.3-.4 2.6 2.6-2.9 4.1-1.8 6.1a30.7 30.7 0 0 0 7.5 8.4c1.2 1 1.4 3.1-3.3 4.1s-23.6 5.9-33.6 16.5c-12.5 13.2-20.4 30.3-21.5 28s-3.6-2.8-3.2-3.5c17.9-30.8 46-55.1 52.6-59.2zm8.2 21.7c-1 2.9-9.1 5.5-8.7 3.5s0-2.2.6-2.3 3.5-1.1 7.5-2.1c.4-.1.9.1.6.9zm-20.6 5.3c-.2-1.2 8.5-4.1 8.8-3.3s-1.8 6-4.7 7-4.7.9-4.6.4a11 11 0 0 0 .5-4.1zm-20.3 45.6c-4 2.5-6.2-2.2-6.8-3.1a3.7 3.7 0 0 1 -.5-3.1c.3-1.4.5-3.3-.4-9.3-.4-2.7 5-9.2 6.3-10.4s3.1.6 3.2 2.6c.3 3.6-1.8 5.6-3.9 7.2s-3.1 4.4-2.6 5.1a1.5 1.5 0 0 0 1.9-.9c1.5-3.3 6-4.9 6.7-6.7s.3-4.4.2-5.6.9-1.2 1.6-1.1 1.4 1.4 1.8 2.7c2.9 7.5-4.3 12-5.5 13.8s1.1 6.9-2 8.8zm6.1-29.1c-2.2 1.5-5.3-.5-4.7-1.4a43.7 43.7 0 0 1 11.5-11c3.4-2.1 3.8-2.3 4-1.1a10.6 10.6 0 0 1 -2.6 7.5c-2.3 2.5-4.6 2.3-5.8 2.6s-.8 2.3-2.4 3.4zm-19.3 25.6c-1-.2-1.4-2.1-1.2-2.9s3.1-5.2 4-6.4a.5.5 0 0 1 .8.3c.6 4.1 0 9.8-3.6 9zm32.2-74.1a17.7 17.7 0 0 1 7.5-1.6c.8.1-1.9 4.8-6.6 6.8s-8.5 2.5-8.9 2.3 4.1-5.8 8-7.5zm-83.3 78.3c-1.5-1.7-2.8-2.6-2.9-2.5a22.4 22.4 0 0 0 -3.6 8.9 65.4 65.4 0 0 1 -7.5-27.9c-1.4-35.4 28.3-63.9 64.5-63.8a56.8 56.8 0 0 1 22.4 4.6 31.3 31.3 0 0 0 -3.7 6.6c0-1.9-.5-3.4-.4-4.6s-5.1.9-9.7 8.3a19.9 19.9 0 0 0 -2.2 5.3c-.1-2.8-.7-4.9-.9-4.9a16.1 16.1 0 0 0 -8.5 8.8 22.4 22.4 0 0 0 -1.1 3.4c-.2-1.9-.7-3.2-.9-3.2s-5.9 2.3-8.6 8.9a15.4 15.4 0 0 0 -1.1 4.6c-.5-2.3-1.4-3.7-1.7-3.4-1.9 2.4-5.7 3.5-7.6 9.6a13.2 13.2 0 0 0 -.7 4.2c-.8-2-2-3.2-2.3-3.2s-6.1 5.5-7 10.9a15.8 15.8 0 0 0 .2 5.8c-1.1-1.8-2.5-3-3.1-4.8-.9.5-5.7 5-5.8 10.7a19.7 19.7 0 0 0 .7 6.1c-1.6-2.9-3.8-4.2-4.1-4.1s-4 4.1-4.8 11.1a11.8 11.8 0 0 0 .4 4.6zm74.1-79.7c2.8-3.4 7.6-6.1 8.2-5.8s-.8 5.6-3.9 8.6-8.1 6.2-8.6 6.1 1.7-5.9 4.3-8.9zm-9.3 13a21 21 0 0 0 -5.6 6.4c-.5.9-1.9-5 1.7-10.6 2.2-3.5 6.6-6.6 6.5-6.2s2.1 6.6-2.6 10.4zm-10.1 7.5c-3.4 5.1-3.6 3.3-7.3 8.3-.2.2-.2-6.5 1.1-9.4 2.1-4.7 5.7-7.4 6.2-7.5s1.9 5.8 0 8.6zm-11.1 10.1c-1.7 3-3.3 2.3-6.2 6.7-.3.4-1.1-3.6.7-9.1a12.6 12.6 0 0 1 5.9-6.9c.6-.1 1.7 5.7-.4 9.3zm-10.3 10.7c-1.8 3.9-2.9 4-5 6.4-.3.4-1.8-3.7-.4-8.8s4-5.6 5.3-7 2 5.3.1 9.4zm-8.4 6.6a10.3 10.3 0 0 1 -.4 3c-1.3 4.3-3.9 6.2-5.3 8.1a15.7 15.7 0 0 1 -1.6-5.8 15.2 15.2 0 0 1 5.2-11.2c.8 0 2.1 3.2 2.1 5.9zm-8.5 12.8a14.9 14.9 0 0 1 -5.1 10.8 17.7 17.7 0 0 1 -2.2-7.6c-.2-6.3 2.4-8.5 3.6-9.7.5 1.8 3.7 3.2 3.7 6.5zm-12.1 6.3c1.8.9 3.9 3.4 4.1 8.2s-3.2 8.7-4.6 9.4c-.9-3.7-2.6-4.4-2.6-8a18 18 0 0 1 3.1-9.6zm7.3 12.5c4.6-2 9.6-1.7 9.8-1.5s-1.5 5.9-5.9 8.2-9.5 2.7-10 2.1 1.5-6.8 6.1-8.8zm-.4-3.4c.3-1.5 3-6.5 7.1-8.3a18.4 18.4 0 0 1 9.4-1.5c.5.2-1.7 5.6-5.8 7.6s-6.5.9-10.7 2.2zm6.9-11.8c.2-.4 3.5-6.4 7.4-8.2a17.5 17.5 0 0 1 8.9-1.4c.3.1-1.8 5.4-6.2 7.6s-10.3 2.5-10.1 2zm8.9-11.9c-.3-.2 4.4-6.4 8.4-8.3a15.6 15.6 0 0 1 8.4-1c.3.3-1.9 5.5-6.5 7.5a24.2 24.2 0 0 1 -10.3 1.8zm10.7-11.8c-.2-.2 3.4-6.3 7.4-7.9s7.7-.1 8.9 0-1.3 4.5-6.6 6.4-9 1.8-9.7 1.5zm12-11.4c.1-.3 4.1-5.9 8.1-7.3a16.4 16.4 0 0 1 9.2-.2c.5.2-2.8 5-7.7 6.5s-9.7 1.3-9.6 1zm12.1-9.9c-.5-.3 4.3-5.7 8.2-7.2a18 18 0 0 1 8.3-1c.3.2-2.5 4.9-7.1 6.7s-8.8 1.9-9.4 1.5zm-66.3 109.2c-21.6-17.2-34.6-43.2-34.6-70.3a89.3 89.3 0 0 1 130.8-79.2.4.4 0 0 1 .1.7 97.3 97.3 0 0 0 -10.2 11.4 73.1 73.1 0 0 0 -31.3-7 74.3 74.3 0 0 0 -74.1 74.1 72.1 72.1 0 0 0 17.9 48.2 23.1 23.1 0 0 0 -1.9 9.4 25.6 25.6 0 0 0 3.3 12.7zm.2-24.8h-.1a69.2 69.2 0 0 1 -16.4-45.5 71.2 71.2 0 0 1 71.1-71.1 70.1 70.1 0 0 1 29.6 6.4 22.6 22.6 0 0 0 -4.1 2.6 63.1 63.1 0 0 0 -25.5-5.1 67.3 67.3 0 0 0 -67.2 67.2c0 16.1 5 30.2 14.8 42-.5.9-1.3 2.1-2.2 3.5zm3.5-5.6c-1.3-1.2-4.1-4.3-4.4-8.3v-.6c0-4.3 1.9-8.6 2.4-9s5.3 3.3 5.4 8.7a14.4 14.4 0 0 1 -3.4 9.2zm8-7.2c3.9-1.8 9.6-1.4 9.3-1.1s-1.8 5.8-6.2 8a12.1 12.1 0 0 1 -8.7 1.3c2.3-2.6 1.8-6.4 5.6-8.2zm5.2 46.5c-.6-2.7-.4-6.3.5-7.3s4.9-1.2 5-.1-1.1 5.4.3 10.2c-.3.7-4.6.4-5.8-2.8zm.3-11.1c-.3-2 1.6-3.9 1.6-8.2s-6.6-12.6-11.1-17.3a19.5 19.5 0 0 0 7.9-1.9c6.6-3.1 7.9-10.1 8.1-10.4a11 11 0 0 0 -3.8-.4l.8-.4c6.4-3.5 8.1-11 7.8-11.1a17 17 0 0 0 -4-.3l2-.7c6.8-2.7 8.7-10.3 8.5-10.6a16.1 16.1 0 0 0 -3.5-.4l1.9-.8c6.2-3.1 8.4-10.1 8.1-10.3a10.5 10.5 0 0 0 -3.3-.4 23.7 23.7 0 0 0 4.5-1.5c6.7-2.9 8.9-9.3 8.6-9.6a10.9 10.9 0 0 0 -3-.5 34.5 34.5 0 0 0 4.4-1.3c6.6-2.2 9.2-8.5 8.8-8.6l-3.7-.8a24.5 24.5 0 0 0 6.6-1.3c7.1-2.4 9.6-6.7 9.8-8.6a6 6 0 0 0 -2.3-.8 29.3 29.3 0 0 0 4.7-1.2c6.6-2.7 9.4-9.3 9.6-9.8a29.3 29.3 0 0 0 3.9-1.6l1.9-.9 1.6 1.1c1 .6 1.4.8.9 1.2-22.7 19.3-39.7 43.8-47.1 55.6-.2.4-.6.3-1.3.3-7.9-.6-12.4 8.9-8.9 17.8-.4 1.8-4.2 5.3-4.5 5.5s-1 1.4.3 1.3 4.2-3.2 5.4-4.5c.4.6 2.2 2 1.3 2.8a63.6 63.6 0 0 1 -13.9 10.5c-2.6 1.2 4.2 2.1 15.7-8.3.7-.6 1.5 2.4 2.5 3.7-2 6.5 2.9 19.1 2.1 23a2.8 2.8 0 0 1 -2.8 2.7c-11.4.3-12.5-.3-18.3 1.4-2.7.8-2 2.6-.1 2.1s4.6-1.5 16.9-.7c3.1.1 6.5-.6 6.5-5.7s-3.6-18.4-2.4-20.3a6.9 6.9 0 0 0 3.5 1.4c-.2 4.5 7 19 3.8 27-1.2 3-6.4 2.7-15.4 1.8-15.3-1.5-20.3 1.8-20.6 0zm35.1 9.9c-5.9 2-8.3-4.9-7.3-6.4s4.4 1 7.3-.9 3.5 6.1 0 7.3zm-27 4.3c-.8-3.7-1.1-10 .4-11.5s4.9-.9 4.8.2c-.3 4.3-2.1 9.2 1.2 14.1 1.3 1.9-5.2 2.2-6.4-2.8zm11.4 4.2c-1.6-.4-6-7.4-2.4-15.8.3-.8 5.8-.3 6.8 0s-.8 6.8 6.8 9.8c.7.3-.1 8.8-11.2 6zm47.2-23.3c-2.5 8.8-3.8 12.3 0 21.9.5 1.3.9 2.3-.2 2.1-7.7-1.4-9.4-2.6-33.7-.6-1.7.2.6-3.4.3-5.8 2.2-.3 5.8-1.3 6.5-4.9s-2.1-7.6-1.8-8.2c3.5-6.7-.2-14.1-3.1-26.6-.3-1.2.4-1.7.9-1.1 15.6 16.9 25.5 20.2 30.9 21.8.5.2.4.8.2 1.4zm39.9-46.1c-3.3 2.9-8.3 3.1-10.3 4.9s-1.5 2.5-.4 5.2 1.1 1.7-1.1 2.3-4.1 5.8-8.8 4.9c-1.8-.3-.5.8.2.9 2.6.3 3.7-.5 4.6-1.4s2.2-2.4 3.6-2.9 2.9-.5 3 .6-1.9 2.1-2.7 2.5c1 .5 3.9 1.9 1.4 3.6s-4.6-.5-4.9-.7-1.7-.2-1.3.3 5.2 1.3 4.5 2.2c-3.5 4.7-.6 7.5-1.7 12.3s-7.7 7.5-12.8 8.4c-17.4 3.1-34.3-11.6-44.2-22.8.9-2.1.8-4.8-.1-3.8s-.7 2.4-2.8 2.9c-3.9 1-5.7-5.9-6.9-7.1-4.8-4.7-6.7-11.4-3.9-17.3s9-4.7 11.4-1.1 1.7 7 3.4 8.3 4.8.2 5.4 0 1.7 4.3 8 4.1 5.9-10.7 6.9-11.6c8.6-8.4 4.2-15.9 2.6-17.6s1-3.6 1.5-3.7a13 13 0 0 0 9.4-7.7s8.4-.2 11.4-6.2c.8-1.6 3.3 1.5 8.9-2.9a.8.8 0 0 1 1.4.3c3.7 8.9 5.2 11.3 4.9 15.8s8.7 21.5 9.4 23.1.8 3.4 0 4.2z"/><path d="m153.8 90c-4.9.2-10.6 6.2-12.4 7s-1.3 1.5-.2 1.1 5.9-4.7 10.7-6.4 3.6 1.8 5 1.6-.3-3.4-3.1-3.3z"/><path d="m154.9 94.8c-.4.1.4 2.2-1.7 2.3-4.6.3-8.3 4.7-11.1 6a12.9 12.9 0 0 1 -3.8 1.4.30413813.30413813 0 0 0 .1.6c11.7 1.6 16.2 1.1 16.3.7s-.6-1.2-.4-1.7a11.3 11.3 0 0 0 .1-5.5c-.2-.8 1.8-.3 1.8-1.3s-.6-2.6-1.3-2.5zm-1.8 9.3c-.2.9-5.5.5-8.3.2-.7 0-1.8-.1.3-1.4s4.1-2.8 7.2-3.4a.8.8 0 0 1 .8.6 10.6 10.6 0 0 1 0 4z"/><path d="m168.4 120.8c-.9 0-4.5 1.6-5.9 2.5s-4.4 2.7-4.2-.8c.1-1.3.9-4.4.9-5.3s-1-.7-1.1 0a36.9 36.9 0 0 1 -.7 5.3c-.4 1.8 1.2 4 3.6 2.7s4.8-2.9 7.3-3.4c.6-.1.7-1 .1-1z"/><path d="m100.5 133.6c-.7-.3-.5 1.2-1.4 1s-.2-1.3-1.8-3-2.8-1.2-4.3-3.6-.3-12 3.1-10.8 1.6 5 1 8 2.5 2.8 2.8 2.1-1.1-.9-1.4-1.9 3.5-7.6-1.8-9.4c-3.8-1.3-6.4 3.6-5.9 8.9a8 8 0 0 0 5.1 7.1c2.3.8.6 4 3.7 4 1.4 0 1.7-2.1.9-2.4z"/><path d="m131.3 33.4c.2.1.3 0 .5-.1l6.5-8.3a.5.5 0 0 0 -.2-.6l-1.1-.4a.4.4 0 0 0 -.5.1l-6.5 8.3c-.2.2-.1.5.2.6z"/><path d="m119.2 30 1.1.3a.5.5 0 0 0 .5-.3l3.8-9.4a.4.4 0 0 0 -.3-.6l-1.2-.2h-.3l-3.9 9.6a.4.4 0 0 0 .3.6z"/><path d="m105.8 28.7h1.1c.2.1.4-.1.4-.3l1-10a.5.5 0 0 0 -.4-.5h-1.1c-.3 0-.4.2-.5.4l-.9 10a.4.4 0 0 0 .4.4z"/><path d="m92.8 29.7 1.1-.2c.2 0 .4-.2.3-.4l-1.9-9.9c0-.2-.2-.4-.4-.3h-1.2c-.2.1-.4.3-.3.5l1.9 9.9c0 .3.2.4.5.4z"/><path d="m79.4 32.8.5.2 1.1-.4a.4.4 0 0 0 .3-.6l-4.6-9a.4.4 0 0 0 -.5-.2l-1 .3a.4.4 0 0 0 -.3.6z"/><path d="m67 38.5c.1.2.3.2.5.1l1-.6a.4.4 0 0 0 .1-.6l-6.7-7.7c-.2-.2-.4-.2-.5-.1l-1 .6c-.3.1-.3.4-.1.6z"/><path d="m55.4 46.7c.2.1.4.1.5-.1l.9-.7a.5.5 0 0 0 0-.7l-8.5-5.9h-.5l-.9.8a.5.5 0 0 0 0 .7z"/><path d="m45.4 57.1a.4.4 0 0 0 .4-.2l.8-.9c.2-.2.1-.5-.2-.6l-9.8-3.8c-.2-.1-.4-.1-.5.1l-.7.9a.4.4 0 0 0 .2.7z"/><path d="m26.8 67.8 10.5 1.5c.2 0 .4-.1.4-.3l.6-1a.4.4 0 0 0 -.3-.6l-10.5-1.5-.5.2a5.4 5.4 0 0 1 -.5 1.1.4.4 0 0 0 .3.6z"/><path d="m21.1 83.7 10.7-1a.3.3 0 0 0 .3-.3 7.6 7.6 0 0 0 .4-1.1.4.4 0 0 0 -.4-.6l-10.8 1-.4.3-.3 1.2c0 .3.2.6.5.5z"/><path d="m29.2 96.5c0-.4.1-.9.1-1.3s-.2-.5-.5-.4l-10.4 3.6c-.2.1-.3.2-.3.4s-.1.8-.1 1.2a.4.4 0 0 0 .6.4l10.3-3.6a.3.3 0 0 0 .3-.3z"/><path d="m28.9 110.8v-1.3a.5.5 0 0 0 -.7-.4l-9.4 6.3c-.2 0-.2.2-.2.4s.1.8.1 1.2a.5.5 0 0 0 .7.3l9.4-6.2c.1-.1.2-.2.1-.3z"/><path d="m31.3 125-.3-1.3a.4.4 0 0 0 -.7-.2l-7.7 8.5c-.1.1-.2.3-.1.4s.3.8.4 1.2a.4.4 0 0 0 .7.2l7.6-8.4c.1-.1.1-.2.1-.4z"/><path d="m35.2 137.7-5.4 10.3c-.1.1 0 .3 0 .4l.7 1.2a.4.4 0 0 0 .7-.1l5.4-10.2c0-.1.1-.2 0-.4l-.6-1.2a.5.5 0 0 0 -.8 0z"/><path d="m42.9 149.3c-.2-.3-.7-.2-.7.1l-2.9 12c-.1.2 0 .3 0 .4l1 1a.4.4 0 0 0 .7-.1l2.8-11.9c.1-.1 0-.2 0-.3z"/></g><g fill="#006c66" transform="matrix(.56199267 0 0 .56199267 155.62 40.167908)"><path d="m8.3.7 15.9 39.7 15.9-39.7h8.3v48.6h-6.4v-18.9l.6-20.5-16 39.4h-4.9l-15.9-39.3.6 20.4v18.9h-6.4v-48.6z"/><path d="m90.7 36.6h-20.4l-4.6 12.7h-6.6l18.6-48.6h5.6l18.6 48.6h-6.6zm-18.5-5.2h16.6l-8.3-22.8z"/><path d="m127.7 19.3 11.7-18.6h7.6l-15.4 24.1 15.7 24.5h-7.6l-12-18.9-12 18.9h-7.6l15.8-24.5-15.4-24.1h7.5z"/><path d="m168.6 31.2h-16.3v-5.1h16.3z"/><path d="m185.4 30.3v19h-6.4v-48.6h17.9c5.4 0 9.5 1.3 12.5 4a13.9 13.9 0 0 1 4.6 10.8c0 4.8-1.5 8.4-4.5 11s-7.1 3.8-12.6 3.8zm0-5.3h11.5c3.5 0 6.1-.8 7.9-2.4a8.9 8.9 0 0 0 2.8-7 9.5 9.5 0 0 0 -2.8-7 11 11 0 0 0 -7.5-2.7h-11.9z"/><path d="m232 44.1h23.1v5.2h-29.5v-48.6h6.4z"/><path d="m293.4 36.6h-20.4l-4.6 12.7h-6.6l18.6-48.6h5.6l18.6 48.6h-6.6zm-18.5-5.2h16.5l-8.2-22.8z"/><path d="m352 49.3h-6.5l-24.5-37.5v37.5h-6.4v-48.6h6.4l24.6 37.6v-37.6h6.4z"/><path d="m402.6 33.9c-.6 5.1-2.5 9.1-5.7 11.9s-7.5 4.2-12.8 4.2a17.3 17.3 0 0 1 -13.8-6.2c-3.5-4.1-5.2-9.6-5.2-16.5v-4.7a27.8 27.8 0 0 1 2.4-11.9 17.3 17.3 0 0 1 6.9-7.9 18.7 18.7 0 0 1 10.3-2.8c5.2 0 9.3 1.4 12.4 4.3s5 6.9 5.5 12h-6.5q-.7-5.9-3.6-8.4a10.9 10.9 0 0 0 -7.8-2.7 11.5 11.5 0 0 0 -9.6 4.6c-2.4 3-3.5 7.3-3.5 12.9v4.8c0 5.2 1.1 9.5 3.3 12.6a10.7 10.7 0 0 0 9.2 4.7c3.6 0 6.3-.9 8.2-2.5s3.2-4.4 3.8-8.4z"/><path d="m427.1 26.7-5.9 6.2v16.4h-6.4v-48.6h6.4v24l21.6-24h7.8l-19.2 21.5 20.7 27.1h-7.7z"/><path d="m470.9 31.2h-16.4v-5.1h16.4z"/><path d="m517.2 43a14.1 14.1 0 0 1 -6.9 5.2 27.4 27.4 0 0 1 -10.3 1.8 19.8 19.8 0 0 1 -10.6-2.8 18.8 18.8 0 0 1 -7.1-7.9 26.8 26.8 0 0 1 -2.6-12v-4.2q0-11 5.1-17.1c3.4-4 8.3-6 14.5-6s9.1 1.3 12.2 3.9 5 6.3 5.7 11h-6.4c-1.2-6.4-5.1-9.7-11.5-9.7-4.3 0-7.6 1.6-9.8 4.6s-3.3 7.4-3.4 13.1v4c0 5.5 1.3 9.8 3.8 13a12.3 12.3 0 0 0 10.1 4.9 23.5 23.5 0 0 0 6.3-.8 11.3 11.3 0 0 0 4.5-2.7v-10.9h-11.2v-5.3h17.6z"/><path d="m558.8 26.8h-21.1v17.3h24.5v5.2h-30.9v-48.6h30.6v5.2h-24.2v15.7h21.1z"/><path d="m588 27.6c-5.5-1.5-9.5-3.5-12-5.8a11.1 11.1 0 0 1 -3.8-8.5 11.6 11.6 0 0 1 4.6-9.5c3.1-2.5 7.1-3.8 12-3.8a19.7 19.7 0 0 1 8.9 1.9 15.2 15.2 0 0 1 6.1 5.4 13.8 13.8 0 0 1 2.1 7.4h-6.4a8.8 8.8 0 0 0 -2.8-6.9 11.4 11.4 0 0 0 -7.9-2.6c-3.2 0-5.7.7-7.4 2.1a7 7 0 0 0 -2.7 5.8 6.3 6.3 0 0 0 2.5 5.1c1.7 1.4 4.6 2.6 8.6 3.8a40.9 40.9 0 0 1 9.5 3.7 14.8 14.8 0 0 1 5.1 4.8 12.3 12.3 0 0 1 1.6 6.5 11.1 11.1 0 0 1 -4.6 9.4c-3 2.4-7.2 3.6-12.3 3.6a22.9 22.9 0 0 1 -9.4-1.9 16.3 16.3 0 0 1 -6.7-5.3 13.1 13.1 0 0 1 -2.3-7.6h6.4a8.3 8.3 0 0 0 3.3 7 13.9 13.9 0 0 0 8.7 2.6q5.1 0 7.8-2.1a6.8 6.8 0 0 0 2.7-5.7 6.6 6.6 0 0 0 -2.5-5.5c-1.7-1.3-4.7-2.6-9.1-3.9z"/><path d="m645.2 26.8h-21.1v17.3h24.5v5.2h-30.9v-48.6h30.6v5.2h-24.2v15.7h21.1z"/><path d="m666.5 44.1h23v5.2h-29.5v-48.6h6.5z"/><path d="m706.7 44.1h23.1v5.2h-29.5v-48.6h6.4z"/><path d="m754.9 27.6c-5.5-1.5-9.5-3.5-12-5.8a10.8 10.8 0 0 1 -3.8-8.5 11.6 11.6 0 0 1 4.6-9.5 18.3 18.3 0 0 1 11.9-3.8 19.9 19.9 0 0 1 9 1.9 15.2 15.2 0 0 1 6.1 5.4 13.8 13.8 0 0 1 2.1 7.4h-6.4a9.1 9.1 0 0 0 -2.8-6.9 11.7 11.7 0 0 0 -8-2.6 11.8 11.8 0 0 0 -7.4 2.1 7.2 7.2 0 0 0 -2.6 5.8 6.3 6.3 0 0 0 2.5 5.1c1.7 1.4 4.5 2.6 8.6 3.8a42.8 42.8 0 0 1 9.5 3.7 14.8 14.8 0 0 1 5.1 4.8 12.3 12.3 0 0 1 1.6 6.5 11.1 11.1 0 0 1 -4.6 9.4q-4.6 3.6-12.3 3.6a22.6 22.6 0 0 1 -9.4-1.9 16.3 16.3 0 0 1 -6.7-5.3 12.4 12.4 0 0 1 -2.3-7.6h6.4a8.3 8.3 0 0 0 3.3 7c2.1 1.7 5 2.6 8.7 2.6s6-.7 7.8-2.1a6.8 6.8 0 0 0 2.7-5.7 6.9 6.9 0 0 0 -2.5-5.5c-1.7-1.3-4.7-2.6-9.1-3.9z"/><path d="m820.4 33.9c-.6 5.1-2.5 9.1-5.7 11.9s-7.5 4.2-12.8 4.2a17.3 17.3 0 0 1 -13.8-6.2c-3.5-4.1-5.2-9.6-5.2-16.5v-4.7a27.8 27.8 0 0 1 2.4-11.9 17.3 17.3 0 0 1 6.9-7.9 18.5 18.5 0 0 1 10.3-2.8c5.1 0 9.3 1.4 12.4 4.3s4.9 6.9 5.5 12h-6.5c-.5-3.9-1.8-6.7-3.6-8.4a10.9 10.9 0 0 0 -7.8-2.7 11.8 11.8 0 0 0 -9.7 4.6c-2.3 3-3.5 7.3-3.5 12.9v4.8c0 5.2 1.1 9.5 3.4 12.6a10.6 10.6 0 0 0 9.2 4.7c3.6 0 6.3-.9 8.2-2.5s3.2-4.4 3.8-8.4z"/><path d="m869.9 49.3h-6.4v-22.5h-24.5v22.5h-6.5v-48.6h6.5v20.9h24.5v-20.9h6.4z"/><path d="m912.2 36.6h-20.3l-4.6 12.7h-6.6l18.5-48.6h5.7l18.6 48.6h-6.6zm-18.4-5.2h16.5l-8.3-22.8z"/><path d="m960.3 27.8h-20.4v21.5h-6.5v-48.6h30.2v5.2h-23.7v16.7h20.4z"/><path d="m1009 5.9h-15.6v43.4h-6.4v-43.4h-15.6v-5.2h37.6z"/></g></g></svg>